<?xml version="1.0" encoding="UTF-8" standalone="no"?>
<svg
   xmlns:dc="http://purl.org/dc/elements/1.1/"
   xmlns:cc="http://creativecommons.org/ns#"
   xmlns:rdf="http://www.w3.org/1999/02/22-rdf-syntax-ns#"
   xmlns:svg="http://www.w3.org/2000/svg"
   xmlns="http://www.w3.org/2000/svg"
   xmlns:sodipodi="http://sodipodi.sourceforge.net/DTD/sodipodi-0.dtd"
   xmlns:inkscape="http://www.inkscape.org/namespaces/inkscape"
   width="48.0px"
   height="48.0px"
   viewBox="0 0 48.0 48.0"
   version="1.1"
   id="SVGRoot"
   sodipodi:docname="logo_reversedBackground.svg"
   inkscape:version="1.0.1 (c497b03c, 2020-09-10)"
   inkscape:export-filename="/Users/jakubzzak/Developer/web-graphics-portfolio/public/assets/personal/logo128x128_black.png"
   inkscape:export-xdpi="256"
   inkscape:export-ydpi="256">
  <defs
     id="defs982">
    <inkscape:path-effect
       effect="spiro"
       id="path-effect1615"
       is_visible="true"
       lpeversion="1" />
    <inkscape:path-effect
       effect="spiro"
       id="path-effect1611"
       is_visible="true"
       lpeversion="1" />
    <inkscape:path-effect
       effect="spiro"
       id="path-effect1607"
       is_visible="true"
       lpeversion="1" />
    <filter
       inkscape:collect="always"
       style="color-interpolation-filters:sRGB"
       id="filter2451"
       x="-0.01219098"
       width="1.024382"
       y="-0.014022899"
       height="1.0280458">
      <feGaussianBlur
         inkscape:collect="always"
         stdDeviation="0.20450565"
         id="feGaussianBlur2453" />
    </filter>
    <filter
       inkscape:collect="always"
       style="color-interpolation-filters:sRGB"
       id="filter2455"
       x="-0.030465224"
       width="1.0609304"
       y="-0.031968336"
       height="1.0639367">
      <feGaussianBlur
         inkscape:collect="always"
         stdDeviation="0.20450565"
         id="feGaussianBlur2457" />
    </filter>
    <filter
       inkscape:collect="always"
       style="color-interpolation-filters:sRGB"
       id="filter2459"
       x="-0.097106572"
       width="1.1942131"
       y="-0.14959344"
       height="1.2991869">
      <feGaussianBlur
         inkscape:collect="always"
         stdDeviation="0.20450565"
         id="feGaussianBlur2461" />
    </filter>
    <filter
       inkscape:collect="always"
       style="color-interpolation-filters:sRGB"
       id="filter2463"
       x="-0.08516958"
       width="1.1703392"
       y="-0.184319"
       height="1.368638">
      <feGaussianBlur
         inkscape:collect="always"
         stdDeviation="0.20450565"
         id="feGaussianBlur2465" />
    </filter>
  </defs>
  <sodipodi:namedview
     id="base"
     pagecolor="#ffffff"
     bordercolor="#666666"
     borderopacity="1.0"
     inkscape:pageopacity="0.0"
     inkscape:pageshadow="2"
     inkscape:zoom="10.985333"
     inkscape:cx="16.172085"
     inkscape:cy="26.786489"
     inkscape:document-units="px"
     inkscape:current-layer="layer2"
     inkscape:document-rotation="0"
     showgrid="true"
     inkscape:window-width="1792"
     inkscape:window-height="1031"
     inkscape:window-x="0"
     inkscape:window-y="23"
     inkscape:window-maximized="0">
    <inkscape:grid
       type="xygrid"
       id="grid991" />
  </sodipodi:namedview>
  <metadata
     id="metadata985">
    <rdf:RDF>
      <cc:Work
         rdf:about="">
        <dc:format>image/svg+xml</dc:format>
        <dc:type
           rdf:resource="http://purl.org/dc/dcmitype/StillImage" />
        <dc:title />
      </cc:Work>
    </rdf:RDF>
  </metadata>
  <g
     inkscape:label="Layer 1"
     inkscape:groupmode="layer"
     id="layer1">
    <rect
       style="fill:#000000;stroke:#000000;stroke-width:8.16497"
       id="rect33"
       width="40"
       height="40"
       x="3.9986637"
       y="4.1820612" />
  </g>
  <g
     inkscape:groupmode="layer"
     id="layer2"
     inkscape:label="Layer 2">
    <path
       style="mix-blend-mode:normal;fill:#424a45;fill-opacity:1;stroke:#ff8200;stroke-opacity:1;filter:url(#filter2451)"
       id="path1623"
       d="m 10.120011,14.185351 c -0.0231,-0.738732 -0.07127,-1.499194 0.111925,-2.223734 0.0508,-0.200905 0.131267,-0.393117 0.1969,-0.589675 0.257618,-0.487548 0.315934,-0.706164 0.753463,-1.078403 0.187573,-0.159582 0.376981,-0.441066 0.620084,-0.401679 0.174431,0.02826 -0.385365,0.330051 -0.264805,0.45924 0.200401,0.214744 0.586361,0.08063 0.862372,0.181097 0.298434,0.108628 0.563269,0.293562 0.844903,0.440344 0.25219,0.238879 0.532106,0.451536 0.756568,0.716639 1.045995,1.23538 1.503862,2.891119 1.706681,4.463414 0.05315,0.411993 0.06721,0.828091 0.100815,1.242136 0.007,0.362396 0.02093,0.724726 0.02088,1.087189 -10e-6,0.06274 -0.04218,1.722997 -0.04341,1.783303 -0.02162,1.060308 -0.02921,2.12083 -0.04795,3.181195 -0.02769,2.529093 -0.722475,4.975154 -1.313609,7.414628 -0.512503,2.175815 -1.058039,4.343228 -1.645017,6.500167 -0.126052,0.463196 -0.24485,0.928573 -0.384761,1.387773 -0.132602,0.435212 -0.288335,0.863038 -0.432502,1.294556 -0.502632,1.222391 -0.979978,2.527722 -1.964439,3.463966 -0.267035,0.253956 -0.562146,0.497156 -0.902421,0.63863 -0.08842,0.03676 0.138381,-0.252482 0.04771,-0.283272 C 8.846821,43.76215 8.517111,43.849835 8.203967,43.843315 7.913676,43.700659 7.605528,43.589696 7.333091,43.415343 6.934065,43.159977 6.227255,42.506092 5.969594,42.1053 5.192483,40.896504 4.995068,39.415549 4.731582,38.038399 c 0.02726,-0.529322 -0.02238,-1.068282 0.0818,-1.587968 0.244384,-1.219132 0.833524,-2.232026 1.508463,-3.254388 0.651993,-0.987605 1.328779,-1.812985 2.222375,-2.590539 0.420352,-0.365766 0.892319,-0.6676 1.338478,-1.0014 0.462769,-0.271817 0.902438,-0.587477 1.388305,-0.81545 0.176472,-0.0828 0.38698,-0.0549 0.575144,-0.105817 0.488212,-0.132115 0.962995,-0.310938 1.451338,-0.442572 0.561172,-0.151264 1.918746,-0.445663 2.509008,-0.49216 0.426996,-0.03364 0.856635,0.002 1.284953,0.0031 0.505228,0.104128 1.016418,0.182649 1.515685,0.312382 0.486075,0.126305 0.959172,0.298255 1.436399,0.454707 1.466321,0.480713 2.129896,0.712626 3.625997,1.327357 1.320023,0.542381 2.418829,1.062511 3.708757,1.655546 1.932763,0.869819 3.791086,1.890985 5.615239,2.967089 0.547026,0.322701 1.078493,0.671569 1.629007,0.988284 1.421133,0.817589 1.620703,0.876496 3.067439,1.55713 0.919587,0.349014 1.614948,0.740698 2.621586,0.681435 0.342997,-0.02019 0.687213,-0.120986 0.992274,-0.279074 0.624788,-0.323778 1.228796,-0.701108 1.769119,-1.151934 0.450065,-0.375517 0.674854,-1.10444 0.882653,-1.61487 0.114637,-1.197482 0.142713,-0.601238 -0.08697,-1.7886 0,0 -1.056276,0.56302 -1.056276,0.56302 v 0 c 0.206797,1.147963 0.188745,0.572472 0.05631,1.726404 -0.115277,0.270412 -0.198723,0.556735 -0.345832,0.811235 -0.154256,0.266866 -0.437964,0.455542 -0.551946,0.741934 -0.03177,0.07981 0.33587,-0.0382 0.257695,-0.0026 -0.318698,0.145161 -0.646472,0.30074 -0.994656,0.33826 -1.05083,0.113207 -1.694046,-0.258458 -2.665797,-0.607056 -0.503832,-0.227447 -1.015132,-0.439027 -1.511495,-0.682343 -1.24621,-0.610887 -2.051844,-1.105144 -3.262968,-1.801124 -1.83126,-1.052347 -3.647726,-2.144078 -5.582887,-2.999822 -2.03914,-0.899753 -1.622806,-0.720782 -3.74375,-1.636366 -0.651744,-0.281349 -1.296607,-0.579415 -1.956387,-0.841366 -0.517663,-0.205527 -1.04645,-0.38217 -1.574149,-0.560357 C 19.400392,27.391784 19.581075,27.472814 18,27.09236 c -0.4309,-0.007 -0.862826,-0.05162 -1.2927,-0.02108 -0.422749,0.03004 -0.839656,0.119181 -1.255275,0.202124 -0.631181,0.125962 -2.217751,0.524174 -2.773003,0.75212 -1.861361,0.764138 -2.252377,1.056896 -3.77149,1.966753 -0.444524,0.338754 -0.915575,0.645272 -1.333573,1.016261 -0.894485,0.793889 -1.526117,1.596378 -2.176248,2.598354 -0.68585,1.057026 -1.281908,2.066839 -1.533637,3.321132 -0.106217,0.529248 -0.05484,1.078209 -0.08227,1.617314 0.09748,0.502049 0.181586,1.006879 0.292432,1.506146 0.196846,0.886634 0.398148,1.870605 0.881962,2.666211 0.168131,0.276484 0.408366,0.504143 0.641109,0.728959 0.672376,0.649475 0.818968,0.651695 1.645379,1.090073 0.323123,0.0152 0.657789,0.132537 0.969368,0.0456 0.818846,-0.228468 2.139575,-0.827805 2.826976,-1.52011 0.954534,-0.961345 1.417545,-2.271336 1.926549,-3.490268 0.139399,-0.431486 0.291569,-0.859055 0.418199,-1.29446 0.201748,-0.693688 0.563647,-2.226448 0.732932,-2.899374 0.56667,-2.252578 0.327443,-1.264767 0.936615,-3.543954 0.129695,-0.485246 0.254374,-0.971819 0.381561,-1.457729 0.333033,-1.359661 0.288216,-1.146803 0.590686,-2.498856 0.365597,-1.634231 0.757397,-3.276513 0.757439,-4.961995 0.0036,-0.970204 -0.0021,-1.145906 0.02862,-2.139458 0.04022,-1.300946 0.11801,-2.602526 -5.21e-4,-3.902871 -0.08956,-0.995243 -0.104769,-1.543593 -0.333445,-2.52604 -0.270375,-1.161609 -0.720702,-2.335171 -1.482783,-3.268925 -0.225421,-0.276199 -0.506139,-0.502224 -0.759208,-0.753336 -0.346806,-0.192945 -1.251499,-0.788642 -1.727372,-0.703407 -0.62656,0.112224 -1.861178,0.601898 -2.462702,1.153002 -0.43345,0.397119 -0.49152,0.623216 -0.744713,1.127987 -0.06476,0.202976 -0.143805,0.401938 -0.194285,0.608929 -0.182228,0.747214 -0.140189,1.522482 -0.183088,2.283534 0,0 1.196494,-0.609645 1.196494,-0.609645 z" />
    <path
       style="mix-blend-mode:normal;fill:#424a45;fill-opacity:1;stroke:#ff8200;stroke-opacity:1;filter:url(#filter2455)"
       id="path1625"
       d="m 25.313795,17.998921 c -0.169141,-0.201549 -0.305489,-0.314072 -0.32766,-0.616198 -0.01178,-0.160515 0.01454,-0.329639 0.08179,-0.475861 0.149322,-0.324659 0.587684,-0.731724 0.912637,-0.852329 0.136022,-0.05048 -0.212145,0.197984 -0.318217,0.296976 1.199028,-0.337711 2.457382,-0.384788 3.683183,-0.165219 0.767057,0.137396 1.244157,0.306372 1.987939,0.532375 0.820781,0.265555 1.63581,0.548295 2.453044,0.824428 0.11239,0.03798 0.779105,0.265552 0.948237,0.306901 0.09622,0.02352 0.195746,0.03053 0.293619,0.04579 0.753562,0.507207 1.788996,-0.782671 1.055788,-1.194946 -0.302187,-0.169916 -0.612826,-0.02428 -0.892147,0.09748 -0.456401,0.2856 -0.932294,0.542188 -1.369203,0.856798 -0.178129,0.128268 -0.343207,0.533771 -0.42479,0.701348 -0.09124,0.187414 -0.178384,0.376858 -0.272932,0.562626 -0.417194,0.819701 -0.308318,0.60194 -0.852684,1.418895 -0.211877,0.263142 -0.414979,0.533598 -0.635632,0.789426 -0.415131,0.481309 -1.103596,1.186893 -1.545228,1.638093 -0.156689,0.160083 -1.136269,1.150021 -1.348829,1.352144 -0.176918,0.168231 -0.362462,0.327154 -0.543693,0.490731 -0.199298,0.143442 -0.413517,0.26815 -0.597894,0.430324 -0.0996,0.08761 0.466703,-0.247918 0.34131,-0.204638 -0.257204,0.08877 -0.487187,0.24431 -0.740921,0.342565 -0.497084,0.192491 -0.829343,0.281934 -1.35429,0.277352 -0.156746,-0.0014 -0.310693,-0.04189 -0.466039,-0.06283 -0.07836,-0.03077 -0.163782,-0.04753 -0.235074,-0.0923 -0.01353,-0.0085 0.04655,-0.04353 0.03355,-0.03425 -0.315895,0.22546 -0.682907,0.394949 -0.942789,0.683191 -0.07267,0.0806 0.21767,-0.01022 0.325576,0.0014 0.35226,0.03784 0.58922,0.124487 0.93196,0.22395 0.695812,0.237783 1.314304,0.638798 1.967735,0.964792 0.168727,0.08418 0.340942,0.161175 0.511413,0.241763 0.263224,0.108248 0.526456,0.216478 0.789674,0.324742 0.813621,0.334649 0.823785,0.350751 1.649658,0.643673 1.22975,0.43617 1.055091,0.340156 2.385568,0.839006 0.493476,0.185024 0.982029,0.382921 1.473043,0.574382 0.990147,0.362759 1.584784,0.629014 2.599605,0.832014 0.306392,0.06129 0.618776,0.11273 0.931196,0.10756 0.797331,-0.01319 1.638241,-0.623565 2.099243,-1.164694 0.147355,-0.172966 0.0147,-0.45421 0.02205,-0.681316 -0.07081,-0.255565 -0.14163,-0.511131 -0.212445,-0.766696 0,0 -1.071548,0.580129 -1.071548,0.580129 v 0 c 0.0575,0.247546 0.115009,0.495092 0.172513,0.742639 -0.0859,0.719419 -0.291401,0.840342 0.634403,0.406168 0.213185,-0.09998 -0.444162,0.176154 -0.678842,0.195347 -0.321831,0.02632 -0.647776,-0.0109 -0.966809,-0.06077 -1.084373,-0.169483 -1.583981,-0.408787 -2.64138,-0.785201 -1.314532,-0.541371 -1.449652,-0.605512 -2.725806,-1.100165 -1.142505,-0.44285 -2.314666,-0.816536 -3.407016,-1.379741 -0.817039,-0.431979 -1.624167,-0.883627 -2.484236,-1.228203 -0.359199,-0.117228 -0.556273,-0.193902 -0.919595,-0.268114 -0.107347,-0.02193 -0.225014,-0.08965 -0.32547,-0.04591 -0.02182,0.0095 -1.667843,0.616483 -1.23957,0.889798 0.08376,0.05346 0.189167,0.06092 0.28375,0.09138 0.486123,0.06372 0.649792,0.118822 1.170938,0.02155 0.448822,-0.08377 1.091041,-0.336155 1.487113,-0.549909 1.569518,-0.847043 1.345644,-0.715548 2.337072,-1.454654 0.625922,-0.587017 1.218217,-1.202639 1.815731,-1.818643 0.469827,-0.484367 1.119714,-1.144225 1.562219,-1.656678 0.226154,-0.261902 0.434606,-0.53858 0.651909,-0.80787 0.171398,-0.254914 0.353304,-0.50307 0.514193,-0.764744 0.181741,-0.295588 0.506332,-0.93917 0.684274,-1.262684 0.07315,-0.132982 0.140281,-0.270223 0.227715,-0.394278 0.06919,-0.09817 0.355282,-0.30171 0.239737,-0.268956 -0.310679,0.08807 -0.573695,0.296622 -0.860542,0.444934 0.224209,-0.125852 0.510504,-0.314155 0.787164,-0.218769 0.05817,0.02005 0.112955,0.06395 0.141624,0.118394 0.02094,0.03977 -0.05045,0.150487 -0.0084,0.134569 0.350832,-0.132878 0.668459,-0.340764 1.002689,-0.511146 -0.100465,-0.0044 -0.202156,0.0031 -0.301396,-0.01311 -0.198866,-0.03255 -0.846365,-0.22699 -0.992139,-0.270636 -0.837992,-0.250902 -1.669782,-0.521876 -2.501119,-0.793819 -0.667227,-0.206566 -1.30063,-0.422528 -1.988116,-0.556373 -1.223955,-0.238287 -2.485767,-0.197028 -3.695506,0.09569 -0.361449,0.184512 -1.831992,0.798535 -2.345382,1.342308 -0.446208,0.472616 -0.517952,0.930325 -0.267257,1.510562 0.0383,0.08865 0.106324,0.161241 0.159486,0.241861 0,0 1.15027,-0.694397 1.15027,-0.694397 z" />
    <path
       style="mix-blend-mode:normal;fill:#424a45;fill-opacity:1;stroke:#ff8200;stroke-opacity:1;filter:url(#filter2459)"
       id="path1627"
       d="m 11.294885,5.255378 c 0.02398,0.106755 0.01621,0.226102 0.07194,0.320264 0.463778,0.7837 1.541194,0.87395 2.33982,0.707408 0.22042,-0.04597 0.426691,-0.143964 0.640037,-0.215945 C 14.938954,5.705323 15.929186,5.390619 16.25334,4.631873 16.487202,4.084472 16.2775,3.60966 15.797625,3.30395 15.655135,3.21318 15.485721,3.173993 15.329769,3.109014 c -0.16318,-0.01198 -0.326041,-0.04218 -0.489541,-0.03593 -0.224978,0.0086 -0.620064,0.09438 -0.826114,0.207572 -1.370402,0.752815 -1.069347,0.464215 -1.629606,1.097534 0,0 1.20197,-0.501948 1.20197,-0.501948 v 0 c 0.388403,-0.384685 0.503889,-0.454491 -0.586381,0.201475 -0.114966,0.06917 0.241294,-0.119668 0.369026,-0.160731 0.412219,-0.13252 0.471396,-0.09827 0.903623,-0.09812 0.147837,0.05262 0.307056,0.08037 0.443511,0.157862 0.444256,0.252289 0.615395,0.678525 0.380401,1.154841 -0.08015,0.162459 -0.477481,0.318569 -0.333787,0.428883 0.162657,0.124871 0.373069,-0.17035 0.559604,-0.255525 -0.209458,0.08129 -0.410458,0.189163 -0.628373,0.243882 -0.676706,0.169923 -1.808537,0.156733 -2.174924,-0.585255 -0.04654,-0.09425 -0.02463,-0.208774 -0.03695,-0.313162 0,0 -1.187342,0.604981 -1.187342,0.604981 z" />
    <path
       style="mix-blend-mode:normal;fill:#424a45;fill-opacity:1;stroke:#ff8200;stroke-opacity:1;filter:url(#filter2463)"
       id="path1629"
       d="m 29.473402,10.668934 c 0.0494,-0.04514 0.20315,-0.173565 0.148187,-0.135404 -0.296223,0.205666 -0.686254,0.330351 -0.873163,0.638752 -0.07221,0.119143 0.257303,0.108703 0.378083,0.178135 0.197634,0.113612 0.384705,0.244714 0.575227,0.369886 1.58183,1.039251 -0.133481,-0.06335 1.536296,1.002405 0.246496,0.102883 0.478392,0.252308 0.739487,0.308649 0.808387,0.17444 1.462689,-0.595029 2.039414,-0.96632 0,0 -1.178403,0.479817 -1.178403,0.479817 v 0 c 1.535854,-0.608855 0.506844,-0.142378 0.14761,-0.19033 -0.263479,-0.03517 -0.499353,-0.182428 -0.74903,-0.273641 -0.262155,-0.170937 -0.52856,-0.335527 -0.786466,-0.512809 -1.18686,-0.815834 -0.240956,-0.20744 -1.249539,-0.917374 -0.126813,-0.08926 -0.238893,-0.286332 -0.390367,-0.253093 -1.145968,0.251464 -1.142946,0.306464 -1.556585,0.83521 0,0 1.219249,-0.563883 1.219249,-0.563883 z" />
    <path
       style="fill:#000000;stroke:#000000;stroke-width:0.0910305"
       d="m 15.817689,15.172234 c 0.0044,-0.106045 0.02594,-0.127616 0.055,-0.055 0.0263,0.06571 0.02306,0.144227 -0.0072,0.174475 -0.03025,0.03025 -0.05176,-0.02352 -0.04781,-0.119477 z"
       id="path31" />
  </g>
</svg>
