<?xml version="1.0" encoding="iso-8859-1"?>
<!-- Generator: Adobe Illustrator 19.0.0, SVG Export Plug-In . SVG Version: 6.00 Build 0)  -->
<svg version="1.1" id="Layer_1" xmlns="http://www.w3.org/2000/svg" xmlns:xlink="http://www.w3.org/1999/xlink" x="0px" y="0px"
	 viewBox="0 0 512.001 512.001" style="enable-background:new 0 0 512.001 512.001;" xml:space="preserve">
<path style="fill:#00C3FF;" d="M87.661,372.233H23.532c-8.854,0-16.032-7.178-16.032-16.032v-144.29
	c0-8.854,7.178-16.032,16.032-16.032h64.129c8.854,0,16.032,7.178,16.032,16.032v144.29
	C103.694,365.055,96.516,372.233,87.661,372.233z"/>
<path style="fill:#00AAF0;" d="M86.151,333.627c1.913-5.907,2.16-12.545-0.139-19.556c-3.463-10.564-12.441-18.903-23.31-21.236
	c-8.782-1.885-17.102-0.149-23.801,3.979c-3.227,1.989-7.352-0.288-7.352-4.079v-96.856h-8.016c-8.854,0-16.032,7.178-16.032,16.032
	v144.29c0,8.854,7.178,16.032,16.032,16.032h64.129c8.854,0,16.032-7.178,16.032-16.032v-16.032H90.668
	C87.283,340.169,85.108,336.847,86.151,333.627z"/>
<path style="fill:#F0C087;" d="M474.855,171.83h-146.71v-8.016c0-17.709-14.356-32.065-32.065-32.065h-31.943
	c-21.033,0-41.643,5.91-59.48,17.058l-100.964,63.104v144.29l63.321,17.269c16.497,4.499,33.521,6.779,50.62,6.779H322.69
	c15.197,0,28.703-11.449,29.466-26.626c0.433-8.617-3.073-16.374-8.814-21.791c13.981-1.596,24.882-13.329,24.882-27.736
	c0-8.043-3.428-15.245-8.85-20.36c13.981-1.596,24.882-13.329,24.882-27.736c0-15.495-12.561-28.056-28.056-28.056h120.242
	c15.995,0,28.864-13.385,28.017-29.565C503.665,183.206,490.048,171.83,474.855,171.83z"/>
<circle style="fill:#E4EAF8;" cx="55.6" cy="324.139" r="16.03"/>
<g>
	<path style="fill:#E6AF78;" d="M367.849,308.104h-43.712c-6.641,0-12.024,5.384-12.024,12.024c0,6.64,5.383,12.024,12.024,12.024
		h19.483c-0.101-0.098-0.173-0.223-0.276-0.32C355.994,330.389,366.035,320.619,367.849,308.104z"/>
	<path style="fill:#E6AF78;" d="M383.881,260.007h-51.728c-6.641,0-12.024,5.384-12.024,12.024s5.383,12.024,12.024,12.024h27.502
		c-0.102-0.099-0.176-0.223-0.279-0.32C372.026,282.293,382.067,272.522,383.881,260.007z"/>
	<path style="fill:#E6AF78;" d="M332.153,203.895c-6.641,0-12.024,5.383-12.024,12.024c0,6.64,5.383,12.024,12.024,12.024h144.295
		c14.129-0.003,25.779-10.459,27.728-24.048H332.153z"/>
	<path style="fill:#E6AF78;" d="M328.145,163.814c0-5.871-1.692-11.3-4.447-16.032h-39.642c-6.641,0-12.024,5.383-12.024,12.024
		c0,6.64,5.383,12.024,12.024,12.024h44.089V163.814z"/>
	<path style="fill:#E6AF78;" d="M351.754,356.201H220.722c-19.127,0-38.146-2.852-56.432-8.462l0,0
		c-21.721-6.664-36.549-26.724-36.549-49.444v-96.404l-24.048,10.02v144.29l63.321,17.269c16.498,4.499,33.523,6.779,50.623,6.779
		H322.69C336.998,380.249,349.666,370.053,351.754,356.201z"/>
</g>
<path d="M511.95,197.986c-0.988-18.873-17.282-33.656-37.095-33.656l-139.21,0.001v-0.517c0-21.816-17.748-39.564-39.564-39.564
	h-31.943c-22.463,0-44.405,6.293-63.454,18.198l-92.566,57.853c-4.053-7.113-11.701-11.923-20.456-11.923h-64.13
	C10.557,188.378,0,198.935,0,211.911v144.29c0,12.977,10.557,23.533,23.532,23.533h64.129c9.676,0,18.003-5.871,21.615-14.237
	l55.765,15.209c17.134,4.674,34.829,7.044,52.594,7.044h105.057c19.772,0,36.006-14.824,36.956-33.749
	c0.318-6.326-1.069-12.538-3.928-18.052c11.94-5.783,20.006-17.96,20.006-31.853c0-5.76-1.365-11.291-3.949-16.256
	c11.926-5.788,19.981-17.958,19.981-31.841c0-7.652-2.431-14.749-6.56-20.557h91.245c9.708,0,19.11-4.04,25.795-11.084
	C509.018,217.215,512.467,207.849,511.95,197.986z M491.357,214.034c-3.922,4.133-9.219,6.409-14.914,6.409H356.202
	c-4.143,0-7.5,3.357-7.5,7.5s3.357,7.5,7.5,7.5c11.334,0,20.556,9.222,20.556,20.557c0,10.378-7.838,19.099-18.232,20.285
	c-2.899,0.33-5.344,2.313-6.266,5.082s-0.153,5.821,1.969,7.824c4.189,3.953,6.497,9.247,6.497,14.905
	c0,10.378-7.838,19.099-18.232,20.285c-2.899,0.33-5.344,2.313-6.266,5.082c-0.922,2.77-0.153,5.821,1.969,7.824
	c4.478,4.225,6.775,9.893,6.471,15.96c-0.541,10.753-10.398,19.502-21.976,19.502H217.635c-16.432,0-32.798-2.192-48.646-6.515
	l-57.795-15.762v-90.464c0-4.143-3.357-7.5-7.5-7.5s-7.5,3.357-7.5,7.5V356.2c0,4.705-3.827,8.533-8.532,8.533h-64.13
	c-4.705,0-8.532-3.828-8.532-8.533V211.91c0-4.705,3.827-8.532,8.532-8.532h64.129c4.705,0,8.532,3.827,8.532,8.532v16.032
	c0,4.143,3.357,7.5,7.5,7.5s7.5-3.357,7.5-7.5v-11.875l97.439-60.899c16.663-10.414,35.856-15.919,55.505-15.919h31.943
	c13.545,0,24.564,11.02,24.564,24.564v0.517h-32.581c-4.143,0-7.5,3.357-7.5,7.5s3.357,7.5,7.5,7.5l186.791-0.001
	c11.633,0,21.554,8.721,22.114,19.44C497.27,204.483,495.276,209.904,491.357,214.034z"/>
<path d="M328.146,276.556h-16.032c-4.143,0-7.5,3.357-7.5,7.5s3.357,7.5,7.5,7.5h16.032c4.143,0,7.5-3.357,7.5-7.5
	S332.288,276.556,328.146,276.556z"/>
<path d="M328.146,220.443h-16.032c-4.143,0-7.5,3.357-7.5,7.5s3.357,7.5,7.5,7.5h16.032c4.143,0,7.5-3.357,7.5-7.5
	S332.288,220.443,328.146,220.443z"/>
<path d="M73.239,325.662c-3.585-2.073-8.173-0.849-10.248,2.736c-1.523,2.635-4.357,4.271-7.395,4.271
	c-4.705,0-8.532-3.827-8.532-8.532s3.827-8.532,8.532-8.532c4.143,0,7.5-3.357,7.5-7.5s-3.357-7.5-7.5-7.5
	c-12.976,0-23.532,10.557-23.532,23.532s10.557,23.532,23.532,23.532c8.374,0,16.183-4.506,20.379-11.759
	C78.05,332.324,76.824,327.736,73.239,325.662z"/>
<circle cx="312.18" cy="332.169" r="7.5"/>
<g>
</g>
<g>
</g>
<g>
</g>
<g>
</g>
<g>
</g>
<g>
</g>
<g>
</g>
<g>
</g>
<g>
</g>
<g>
</g>
<g>
</g>
<g>
</g>
<g>
</g>
<g>
</g>
<g>
</g>
</svg>
