<svg id="Bold" enable-background="new 0 0 32 32" height="512" viewBox="0 0 32 32" width="512" xmlns="http://www.w3.org/2000/svg"><path d="m26 32h-20c-3.314 0-6-2.686-6-6v-20c0-3.314 2.686-6 6-6h20c3.314 0 6 2.686 6 6v20c0 3.314-2.686 6-6 6z" fill="#ffe6e2"/><path d="m11.407 20.605h.086c.39 0 .784 0 1.175.003.049 0 .095-.013.111.065.218 1.091.922 1.706 1.934 1.997.827.237 1.663.244 2.5.056 1.039-.231 1.722-.885 2.091-1.887.246-.672.329-1.369.338-2.078.003-.181.009-1.469-.006-1.65l-.028-.009c-.025.047-.052.091-.077.137-.679 1.347-1.884 2.106-3.241 2.159-3.167.125-5.208-1.781-5.288-5.506-.015-.741.055-1.465.255-2.178.634-2.222 2.294-3.694 4.731-3.713 1.884-.013 3.121 1.209 3.573 2.197.015.035.04.072.073.059v-1.925h1.362c0 8.759.003 10.381.003 10.381-.003 2.453-.821 4.491-3.167 5.069-2.137.528-4.888.15-6.026-1.787-.245-.422-.361-.885-.399-1.39zm4.498-11.463c-1.614-.015-3.336 1.272-3.536 4.181-.126 1.844.455 3.819 2.198 4.644.849.403 2.284.469 3.33-.272 1.463-1.037 1.928-3.031 1.685-4.813-.298-2.221-1.469-3.749-3.677-3.74z" fill="#fc573b"/></svg>